<svg width="150" height="150" viewBox="0 0 150 150" fill="none" xmlns="http://www.w3.org/2000/svg">
<path fill-rule="evenodd" clip-rule="evenodd" d="M39.5142 0L19.2951 11.1831L61.2041 91.7225L82.9003 108.398L81.4232 80.5395L39.5142 0ZM75.6542 36.9846L81.9347 31.2602L150 56.4969L147.611 63.6642L75.6542 36.9846ZM141.856 80.9314L73.689 55.657L68.4969 45.6789L144.245 73.7641L141.856 80.9314ZM85.9751 79.6134L136.101 98.1985L138.49 91.0313L81.0056 69.7178L85.9547 79.2289L85.9751 79.6134ZM48.3321 77.0044L36.5422 72.6331L30.2616 78.3574L53.5242 86.9825L48.3321 77.0044ZM70.1225 104.485L88.0232 118.243L87.6381 110.979L126.979 125.566L124.59 132.733L15.1308 92.1483L21.4113 86.424L70.1225 104.485ZM86.5888 91.1889L87.0243 99.4034L130.346 115.466L132.734 108.298L86.5888 91.1889ZM121.224 142.833L6.28051 100.215L0 105.939L118.835 150L121.224 142.833Z" fill="#C4C4C4"/>
</svg>
