<svg width="120" height="150" viewBox="0 0 120 150" fill="none" xmlns="http://www.w3.org/2000/svg">
<path d="M81.4679 36.1864C86.2565 37.8381 89.1743 37.3507 89.1743 29.6763C89.1743 13.2865 75.8661 0 59.4496 0C43.033 0 29.7248 13.2865 29.7248 29.6763C29.7248 37.9224 33.0936 37.8708 38.5321 35.7837V92.8234C35.9074 92.1089 33.1377 91.7266 30.2752 91.7266C13.5547 91.7266 0 104.772 0 120.863C0 136.955 13.5547 150 30.2752 150C45.0204 150 57.3035 139.855 60 126.423C62.6965 139.855 74.9797 150 89.7248 150C106.445 150 120 136.955 120 120.863C120 104.772 106.445 91.7266 89.7248 91.7266C86.8623 91.7266 84.0927 92.1089 81.4679 92.8234V36.1864Z" fill="#C4C4C4"/>
</svg>
