<svg width="150" height="155" viewBox="0 0 150 155" fill="none" xmlns="http://www.w3.org/2000/svg">
<path d="M150 51.3834C150 69.5207 140.793 85.4631 126.888 94.6075C126.879 94.6832 126.869 94.7646 126.859 94.8515C126.785 95.4842 126.69 96.4029 126.611 97.5176C126.45 99.7635 126.356 102.727 126.594 105.717C126.745 107.618 127.709 109.005 128.826 110.023C129.384 110.532 129.938 110.905 130.346 111.147C130.546 111.265 130.702 111.347 130.793 111.392C130.819 111.405 130.84 111.415 130.854 111.422C130.863 111.426 130.87 111.429 130.874 111.431C132.96 112.341 133.926 114.765 133.033 116.863C132.123 119.001 129.633 119.954 127.516 119.027C127.428 118.987 127.284 118.921 127.094 118.827C126.842 118.702 126.507 118.525 126.115 118.293C125.336 117.832 124.298 117.133 123.232 116.161C121.1 114.218 118.685 111.01 118.316 106.376C118.111 103.803 118.115 101.301 118.202 99.1678C116.998 99.6547 115.772 100.096 114.526 100.488C114.557 100.731 114.586 100.985 114.612 101.25C114.883 103.97 114.86 107.85 113.867 112.909C112.844 118.125 110.765 122.808 108.999 126.127C108.108 127.802 107.277 129.167 106.662 130.122C106.353 130.601 106.098 130.979 105.915 131.245C105.823 131.377 105.749 131.482 105.696 131.557C105.341 132.055 102.769 134.427 99.7943 132.586C97.9467 131.231 97.546 128.636 98.8978 126.787L98.8984 126.786L98.9005 126.783L98.9016 126.781L98.933 126.738C98.9534 126.709 98.9824 126.668 99.0193 126.615C99.0383 126.588 99.0594 126.558 99.0826 126.524C99.2186 126.327 99.4236 126.024 99.6793 125.627C100.192 124.831 100.902 123.666 101.668 122.227C103.215 119.317 104.908 115.436 105.718 111.31C106.524 107.204 106.537 104.218 106.371 102.314C104.174 102.613 101.932 102.767 99.6546 102.767C98.0959 102.767 96.5537 102.695 95.0311 102.553C94.7492 102.811 94.3506 103.196 93.8981 103.697C92.9342 104.763 91.8012 106.267 90.9924 108.086C90.3837 109.456 90.3089 111.15 90.3757 113.755C90.3807 113.95 90.387 114.155 90.3937 114.368C90.4614 116.553 90.5572 119.648 89.5288 122.391C88.5698 124.948 86.3724 128.555 84.6571 131.223C83.7556 132.625 82.9066 133.89 82.2838 134.804C81.9718 135.261 81.7153 135.633 81.5357 135.891C81.4458 136.02 81.3751 136.121 81.3263 136.191C81.3143 136.208 81.2998 136.23 81.2826 136.255C80.8655 136.867 78.9102 139.735 75.4611 137.301C73.5876 135.978 73.1409 133.387 74.4634 131.514L74.4773 131.494L74.5255 131.425C74.5687 131.364 74.6333 131.271 74.7168 131.151C74.8839 130.911 75.1262 130.56 75.4224 130.126C76.016 129.255 76.8214 128.055 77.6716 126.732C79.4598 123.951 81.1551 121.07 81.7531 119.475C82.1811 118.333 82.1476 116.838 82.074 113.967C82.011 111.511 81.9363 108.015 83.4037 104.714C84.0687 103.218 84.8551 101.892 85.6488 100.752C83.1059 100.002 80.6458 99.053 78.2858 97.9222C79.6603 94.0159 80.7259 90.4552 81.6857 87.2477C81.9197 86.4659 82.1473 85.7051 82.3717 84.9654C87.6932 87.7162 93.7492 89.2723 100.174 89.2723C121.386 89.2723 138.581 72.3089 138.581 51.3834C138.581 30.458 121.386 13.4946 100.174 13.4946C78.9616 13.4946 61.7658 30.458 61.7658 51.3834C61.7658 57.6355 63.3008 63.5338 66.0193 68.7317C64.9748 71.3053 64.0994 73.8514 63.2904 76.3996C62.7013 78.2554 62.1593 80.0583 61.6218 81.8459C61.3855 82.6318 61.1498 83.4156 60.9117 84.1988C59.5496 82.5255 58.2896 80.7626 57.1415 78.92C55.6355 79.1072 54.3119 80.2637 52.1448 83.5689C51.8398 84.0341 51.5055 84.5616 51.15 85.1226C50.3218 86.4296 49.3776 87.9196 48.4146 89.2351C46.9701 91.2086 45.1545 93.2832 42.7311 94.8411C40.8021 96.0811 38.2331 95.5226 36.993 93.5937C35.753 91.6647 36.3114 89.0956 38.2404 87.8556C39.4502 87.0779 40.5582 85.9086 41.7137 84.33C42.5133 83.2376 43.1917 82.165 43.9349 80.9901C44.3289 80.3672 44.7414 79.715 45.2 79.0155C46.9228 76.3879 49.3695 72.941 53.2708 71.3968C52.0222 68.3861 51.0468 65.2287 50.3762 61.957C49.2939 62.5764 48.2405 63.2584 47.4251 63.9379C47.1909 64.1331 46.7973 64.5912 46.2108 65.5687C45.7945 66.2624 45.4075 66.9931 44.9521 67.8528C44.7611 68.2133 44.558 68.5967 44.3355 69.0098C42.994 71.5012 41.0219 74.9824 37.7277 77.1786C34.562 79.289 30.3524 80.1532 27.4204 80.5518C25.8671 80.763 24.4823 80.8663 23.4844 80.9172C22.7326 80.9556 22.1894 80.9649 21.9398 80.9671C19.645 80.9877 17.6429 79.1391 17.6487 76.8053C17.6544 74.5136 19.5156 72.6602 21.8067 72.6634H21.8084L21.8095 72.6634H21.8112L21.8139 72.6634L21.8654 72.6631C21.9155 72.6626 21.9965 72.6616 22.1052 72.6593C22.3228 72.6546 22.6498 72.6446 23.061 72.6236C23.8876 72.5814 25.0328 72.4956 26.3015 72.3231C29.0136 71.9544 31.6157 71.2726 33.1213 70.2689C34.4983 69.3508 35.6404 67.6418 37.0237 65.0727C37.1791 64.7841 37.3427 64.4754 37.512 64.1557C38.0067 63.2217 38.5513 62.1937 39.0898 61.2961C39.8171 60.084 40.7859 58.6606 42.1088 57.5583C44.0197 55.9658 46.3857 54.6273 48.1269 53.7339C48.5596 53.5119 48.9675 53.3105 49.3378 53.1323C49.3188 52.5518 49.3092 51.9688 49.3092 51.3834C49.3092 23.0052 71.8496 0 99.6546 0C127.46 0 150 23.0052 150 51.3834Z" fill="#C4C4C4"/>
<path d="M124.364 37.6846C127.404 34.6442 127.404 29.7148 124.364 26.6744C121.323 23.6341 116.394 23.6341 113.353 26.6744C109.03 30.9976 105.461 32.7617 100.858 35.037C100.476 35.2257 100.088 35.4179 99.6906 35.6154C94.1516 38.3707 87.988 41.766 80.8412 49.8657C72.1024 59.7696 68.5571 68.3863 65.7639 77.1849C65.1928 78.9837 64.6618 80.7509 64.1308 82.5179C62.1057 89.257 60.0813 95.9936 55.8404 104.475C54.7458 106.665 52.3002 109.585 48.3067 113.041C44.4265 116.399 39.5776 119.845 34.305 123.186C23.7651 129.863 12.1086 135.757 4.49491 139.31C0.598554 141.128 -1.08604 145.761 0.732255 149.657C2.55055 153.554 7.18319 155.238 11.0795 153.42C19.0366 149.707 31.3377 143.498 42.6381 136.339C48.2857 132.761 53.8276 128.855 58.4958 124.815C63.0508 120.874 67.3112 116.351 69.7673 111.439C74.6644 101.645 77.127 93.421 79.1788 86.5692C79.6683 84.9344 80.1345 83.3775 80.6048 81.8962C83.0018 74.3455 85.6848 67.9105 92.5167 60.1676C97.8265 54.1498 102.043 51.8358 106.625 49.5566C107.028 49.3561 107.439 49.1542 107.857 48.9487C112.557 46.6363 118.177 43.8717 124.364 37.6846Z" fill="#C4C4C4"/>
</svg>
