<svg width="975" height="111" viewBox="0 0 975 111" fill="none" xmlns="http://www.w3.org/2000/svg">
<path d="M89.7725 22.208H57.7656V109H32.0576V22.208H0.636719V2.35938H89.7725V22.208Z" fill="black"/>
<path d="M154.519 80.6553C154.519 76.8955 153.176 73.9658 150.49 71.8662C147.854 69.7666 143.19 67.5938 136.501 65.3477C129.812 63.1016 124.343 60.9287 120.095 58.8291C106.276 52.042 99.3672 42.7158 99.3672 30.8506C99.3672 24.9424 101.076 19.7422 104.494 15.25C107.961 10.709 112.844 7.19336 119.143 4.70312C125.441 2.16406 132.521 0.894531 140.383 0.894531C148.049 0.894531 154.909 2.26172 160.964 4.99609C167.067 7.73047 171.804 11.6367 175.173 16.7148C178.542 21.7441 180.227 27.5059 180.227 34H154.592C154.592 29.6543 153.249 26.2852 150.563 23.8926C147.927 21.5 144.338 20.3037 139.797 20.3037C135.207 20.3037 131.569 21.3291 128.884 23.3799C126.247 25.3818 124.929 27.9453 124.929 31.0703C124.929 33.8047 126.394 36.2949 129.323 38.541C132.253 40.7383 137.404 43.0332 144.777 45.4258C152.15 47.7695 158.205 50.3086 162.941 53.043C174.465 59.6836 180.227 68.8389 180.227 80.5088C180.227 89.835 176.711 97.1592 169.68 102.481C162.648 107.804 153.005 110.465 140.749 110.465C132.106 110.465 124.27 108.927 117.238 105.851C110.256 102.726 104.982 98.4775 101.418 93.1064C97.9023 87.6865 96.1445 81.4609 96.1445 74.4297H121.926C121.926 80.1426 123.391 84.3662 126.32 87.1006C129.299 89.7861 134.108 91.1289 140.749 91.1289C144.997 91.1289 148.342 90.2256 150.783 88.4189C153.273 86.5635 154.519 83.9756 154.519 80.6553Z" fill="black"/>
<path d="M279.689 72.8916C279.348 80.3135 277.346 86.8809 273.684 92.5938C270.021 98.2578 264.87 102.652 258.229 105.777C251.638 108.902 244.094 110.465 235.598 110.465C221.584 110.465 210.549 105.899 202.492 96.7686C194.436 87.6377 190.407 74.7471 190.407 58.0967V52.8232C190.407 42.374 192.214 33.2432 195.827 25.4307C199.489 17.5693 204.738 11.5146 211.574 7.2666C218.41 2.96973 226.32 0.821289 235.305 0.821289C248.244 0.821289 258.645 4.23926 266.506 11.0752C274.367 17.8623 278.835 27.2373 279.909 39.2002H254.274C254.079 32.7061 252.443 28.043 249.367 25.2109C246.291 22.3789 241.604 20.9629 235.305 20.9629C228.908 20.9629 224.221 23.3555 221.242 28.1406C218.264 32.9258 216.701 40.5674 216.555 51.0654V58.6094C216.555 69.9863 217.971 78.1162 220.803 82.999C223.684 87.8818 228.615 90.3232 235.598 90.3232C241.506 90.3232 246.022 88.9316 249.147 86.1484C252.272 83.3652 253.933 78.9463 254.128 72.8916H279.689Z" fill="black"/>
<path d="M380.983 109H355.422V64.4688H317.556V109H291.848V2.35938H317.556V44.6934H355.422V2.35938H380.983V109Z" fill="black"/>
<path d="M487.624 57.877C487.624 68.2773 485.695 77.4814 481.838 85.4893C477.98 93.4971 472.487 99.6738 465.358 104.02C458.278 108.316 450.197 110.465 441.115 110.465C432.033 110.465 423.977 108.39 416.945 104.239C409.914 100.04 404.421 94.0586 400.466 86.2949C396.56 78.5312 394.509 69.6201 394.313 59.5615V53.5557C394.313 43.1064 396.218 33.9023 400.026 25.9434C403.884 17.9355 409.377 11.7588 416.506 7.41309C423.684 3.06738 431.838 0.894531 440.969 0.894531C450.002 0.894531 458.059 3.04297 465.139 7.33984C472.219 11.6367 477.712 17.7646 481.618 25.7236C485.573 33.6338 487.575 42.7158 487.624 52.9697V57.877ZM461.477 53.4092C461.477 42.8135 459.694 34.7812 456.13 29.3125C452.614 23.7949 447.561 21.0361 440.969 21.0361C428.078 21.0361 421.267 30.7041 420.534 50.04L420.461 57.877C420.461 68.3262 422.194 76.3584 425.661 81.9736C429.128 87.5889 434.279 90.3965 441.115 90.3965C447.609 90.3965 452.614 87.6377 456.13 82.1201C459.646 76.6025 461.428 68.668 461.477 58.3164V53.4092Z" fill="black"/>
<path d="M584.523 2.35938V72.1592C584.523 80.0693 582.839 86.9297 579.47 92.7402C576.101 98.502 571.267 102.896 564.968 105.924C558.669 108.951 551.223 110.465 542.629 110.465C529.641 110.465 519.411 107.096 511.94 100.357C504.47 93.6191 500.661 84.3906 500.515 72.6719V2.35938H526.369V73.1846C526.662 84.8545 532.082 90.6895 542.629 90.6895C547.951 90.6895 551.979 89.2246 554.714 86.2949C557.448 83.3652 558.815 78.6045 558.815 72.0127V2.35938H584.523Z" fill="black"/>
<path d="M689.699 109H664.138L626.345 42.6426V109H600.637V2.35938H626.345L664.064 68.7168V2.35938H689.699V109Z" fill="black"/>
<path d="M767.849 89.0781H732.619L726.467 109H699.001L738.112 2.35938H762.282L801.687 109H774.074L767.849 89.0781ZM738.771 69.2295H761.696L750.197 32.2422L738.771 69.2295Z" fill="black"/>
<path d="M875.661 63.8096H835.231V89.2246H882.985V109H809.523V2.35938H883.132V22.208H835.231V44.6934H875.661V63.8096Z" fill="black"/>
<path d="M948.464 80.6553C948.464 76.8955 947.121 73.9658 944.436 71.8662C941.799 69.7666 937.136 67.5938 930.446 65.3477C923.757 63.1016 918.288 60.9287 914.04 58.8291C900.222 52.042 893.312 42.7158 893.312 30.8506C893.312 24.9424 895.021 19.7422 898.439 15.25C901.906 10.709 906.789 7.19336 913.088 4.70312C919.387 2.16406 926.467 0.894531 934.328 0.894531C941.994 0.894531 948.854 2.26172 954.909 4.99609C961.013 7.73047 965.749 11.6367 969.118 16.7148C972.487 21.7441 974.172 27.5059 974.172 34H948.537C948.537 29.6543 947.194 26.2852 944.509 23.8926C941.872 21.5 938.283 20.3037 933.742 20.3037C929.152 20.3037 925.515 21.3291 922.829 23.3799C920.192 25.3818 918.874 27.9453 918.874 31.0703C918.874 33.8047 920.339 36.2949 923.269 38.541C926.198 40.7383 931.35 43.0332 938.723 45.4258C946.096 47.7695 952.15 50.3086 956.887 53.043C968.41 59.6836 974.172 68.8389 974.172 80.5088C974.172 89.835 970.656 97.1592 963.625 102.481C956.594 107.804 946.95 110.465 934.694 110.465C926.052 110.465 918.215 108.927 911.184 105.851C904.201 102.726 898.928 98.4775 895.363 93.1064C891.848 87.6865 890.09 81.4609 890.09 74.4297H915.871C915.871 80.1426 917.336 84.3662 920.266 87.1006C923.244 89.7861 928.054 91.1289 934.694 91.1289C938.942 91.1289 942.287 90.2256 944.729 88.4189C947.219 86.5635 948.464 83.9756 948.464 80.6553Z" fill="black"/>
</svg>
