<svg width="815" height="119" viewBox="1 1 815 119" fill="none" xmlns="http://www.w3.org/2000/svg">
<mask id="path-1-outside-1" maskUnits="userSpaceOnUse" x="0.929688" y="0.5" width="812" height="116" fill="black">
<rect fill="white" x="0.929688" y="0.5" width="812" height="116"/>
<path d="M88.7949 25.1572H56.1289V114H34.1562V25.1572H1.92969V7.35938H88.7949V25.1572Z"/>
<path d="M137.354 92.1006C137.354 89.5127 136.061 87.4863 133.473 86.0215C130.934 84.5078 126.832 83.165 121.168 81.9932C102.32 78.0381 92.8965 70.0303 92.8965 57.9697C92.8965 50.9385 95.8018 45.0791 101.612 40.3916C107.472 35.6553 115.113 33.2871 124.537 33.2871C134.596 33.2871 142.628 35.6553 148.634 40.3916C154.688 45.1279 157.716 51.2803 157.716 58.8486H136.549C136.549 55.8213 135.572 53.3311 133.619 51.3779C131.666 49.376 128.614 48.375 124.464 48.375C120.899 48.375 118.141 49.1807 116.188 50.792C114.234 52.4033 113.258 54.4541 113.258 56.9443C113.258 59.2881 114.356 61.1924 116.554 62.6572C118.8 64.0732 122.56 65.3184 127.833 66.3926C133.106 67.418 137.55 68.5898 141.163 69.9082C152.345 74.0098 157.936 81.1143 157.936 91.2217C157.936 98.4482 154.835 104.308 148.634 108.8C142.433 113.243 134.425 115.465 124.61 115.465C117.97 115.465 112.062 114.293 106.886 111.949C101.759 109.557 97.7305 106.31 94.8008 102.208C91.8711 98.0576 90.4062 93.5898 90.4062 88.8047H110.475C110.67 92.5645 112.062 95.4453 114.649 97.4473C117.237 99.4492 120.704 100.45 125.05 100.45C129.103 100.45 132.154 99.6934 134.205 98.1797C136.305 96.6172 137.354 94.5908 137.354 92.1006Z"/>
<path d="M204.591 98.3994C208.497 98.3994 211.671 97.3252 214.112 95.1768C216.554 93.0283 217.823 90.1719 217.921 86.6074H237.77C237.721 91.9785 236.256 96.9102 233.375 101.402C230.494 105.846 226.539 109.312 221.51 111.803C216.529 114.244 211.012 115.465 204.957 115.465C193.629 115.465 184.693 111.876 178.15 104.698C171.607 97.4717 168.336 87.5107 168.336 74.8154V73.4238C168.336 61.2168 171.583 51.4756 178.077 44.2002C184.571 36.9248 193.482 33.2871 204.811 33.2871C214.723 33.2871 222.657 36.1191 228.614 41.7832C234.62 47.3984 237.672 54.8936 237.77 64.2686H217.921C217.823 60.167 216.554 56.8467 214.112 54.3076C211.671 51.7197 208.448 50.4258 204.444 50.4258C199.513 50.4258 195.777 52.2324 193.238 55.8457C190.748 59.4102 189.503 65.2207 189.503 73.2773V75.4746C189.503 83.6289 190.748 89.4883 193.238 93.0527C195.729 96.6172 199.513 98.3994 204.591 98.3994Z"/>
<path d="M270.509 43.3945C276.124 36.6562 283.18 33.2871 291.676 33.2871C308.863 33.2871 317.579 43.2725 317.823 63.2432V114H296.656V63.8291C296.656 59.2881 295.68 55.9434 293.727 53.7949C291.773 51.5977 288.526 50.499 283.985 50.499C277.784 50.499 273.292 52.8916 270.509 57.6768V114H249.342V1.5H270.509V43.3945Z"/>
<path d="M330.494 73.6436C330.494 65.7822 332.008 58.7754 335.035 52.623C338.062 46.4707 342.408 41.71 348.072 38.3408C353.785 34.9717 360.401 33.2871 367.921 33.2871C378.614 33.2871 387.33 36.5586 394.068 43.1016C400.855 49.6445 404.64 58.5312 405.421 69.7617L405.567 75.1816C405.567 87.3398 402.174 97.1055 395.387 104.479C388.6 111.803 379.493 115.465 368.067 115.465C356.642 115.465 347.511 111.803 340.675 104.479C333.888 97.1543 330.494 87.1934 330.494 74.5957V73.6436ZM351.661 75.1816C351.661 82.7012 353.077 88.4629 355.909 92.4668C358.741 96.4219 362.794 98.3994 368.067 98.3994C373.194 98.3994 377.198 96.4463 380.079 92.54C382.96 88.585 384.4 82.2861 384.4 73.6436C384.4 66.2705 382.96 60.5576 380.079 56.5049C377.198 52.4521 373.146 50.4258 367.921 50.4258C362.745 50.4258 358.741 52.4521 355.909 56.5049C353.077 60.5088 351.661 66.7344 351.661 75.1816Z"/>
<path d="M466.065 105.943C460.841 112.291 453.614 115.465 444.386 115.465C435.89 115.465 429.396 113.023 424.903 108.141C420.46 103.258 418.189 96.1045 418.092 86.6807V34.752H439.259V85.9482C439.259 94.2002 443.019 98.3262 450.538 98.3262C457.716 98.3262 462.647 95.8359 465.333 90.8555V34.752H486.573V114H466.651L466.065 105.943Z"/>
<path d="M522.022 34.752L522.682 43.9072C528.346 36.8271 535.938 33.2871 545.46 33.2871C553.858 33.2871 560.108 35.7529 564.21 40.6846C568.312 45.6162 570.411 52.9893 570.509 62.8037V114H549.342V63.3164C549.342 58.8242 548.365 55.5771 546.412 53.5752C544.459 51.5244 541.212 50.499 536.671 50.499C530.714 50.499 526.246 53.0381 523.268 58.1162V114H502.101V34.752H522.022Z"/>
<path d="M632.545 114C631.568 112.096 630.86 109.728 630.421 106.896C625.294 112.608 618.629 115.465 610.426 115.465C602.662 115.465 596.217 113.219 591.09 108.727C586.012 104.234 583.473 98.5703 583.473 91.7344C583.473 83.3359 586.573 76.8906 592.774 72.3984C599.024 67.9062 608.033 65.6357 619.801 65.5869H629.542V61.0459C629.542 57.3838 628.59 54.4541 626.686 52.2568C624.83 50.0596 621.876 48.9609 617.823 48.9609C614.259 48.9609 611.451 49.8154 609.4 51.5244C607.398 53.2334 606.397 55.5771 606.397 58.5557H585.23C585.23 53.9658 586.646 49.7178 589.479 45.8115C592.311 41.9053 596.314 38.8535 601.49 36.6562C606.666 34.4102 612.477 33.2871 618.922 33.2871C628.688 33.2871 636.427 35.7529 642.14 40.6846C647.901 45.5674 650.782 52.4521 650.782 61.3389V95.6895C650.831 103.209 651.881 108.897 653.932 112.755V114H632.545ZM615.04 99.2783C618.165 99.2783 621.046 98.5947 623.683 97.2275C626.319 95.8115 628.272 93.9316 629.542 91.5879V77.9648H621.632C611.036 77.9648 605.396 81.627 604.713 88.9512L604.64 90.1963C604.64 92.833 605.567 95.0059 607.423 96.7148C609.278 98.4238 611.817 99.2783 615.04 99.2783Z"/>
<path d="M703.517 115.465C691.896 115.465 682.423 111.9 675.099 104.771C667.823 97.6426 664.186 88.1455 664.186 76.2803V74.2295C664.186 66.2705 665.724 59.166 668.8 52.916C671.876 46.6172 676.222 41.7832 681.837 38.4141C687.501 34.9961 693.946 33.2871 701.173 33.2871C712.013 33.2871 720.533 36.7051 726.734 43.541C732.984 50.377 736.109 60.0693 736.109 72.6182V81.2607H685.646C686.329 86.4365 688.38 90.5869 691.798 93.7119C695.265 96.8369 699.635 98.3994 704.908 98.3994C713.062 98.3994 719.435 95.4453 724.024 89.5371L734.425 101.183C731.251 105.675 726.954 109.19 721.534 111.729C716.114 114.22 710.108 115.465 703.517 115.465ZM701.1 50.4258C696.9 50.4258 693.482 51.8418 690.846 54.6738C688.258 57.5059 686.598 61.5586 685.865 66.832H715.309V65.1475C715.211 60.46 713.941 56.8467 711.5 54.3076C709.059 51.7197 705.592 50.4258 701.1 50.4258Z"/>
<path d="M791.114 92.1006C791.114 89.5127 789.82 87.4863 787.232 86.0215C784.693 84.5078 780.592 83.165 774.928 81.9932C756.08 78.0381 746.656 70.0303 746.656 57.9697C746.656 50.9385 749.562 45.0791 755.372 40.3916C761.231 35.6553 768.873 33.2871 778.297 33.2871C788.355 33.2871 796.388 35.6553 802.394 40.3916C808.448 45.1279 811.476 51.2803 811.476 58.8486H790.309C790.309 55.8213 789.332 53.3311 787.379 51.3779C785.426 49.376 782.374 48.375 778.224 48.375C774.659 48.375 771.9 49.1807 769.947 50.792C767.994 52.4033 767.018 54.4541 767.018 56.9443C767.018 59.2881 768.116 61.1924 770.313 62.6572C772.56 64.0732 776.319 65.3184 781.593 66.3926C786.866 67.418 791.31 68.5898 794.923 69.9082C806.104 74.0098 811.695 81.1143 811.695 91.2217C811.695 98.4482 808.595 104.308 802.394 108.8C796.192 113.243 788.185 115.465 778.37 115.465C771.729 115.465 765.821 114.293 760.646 111.949C755.519 109.557 751.49 106.31 748.561 102.208C745.631 98.0576 744.166 93.5898 744.166 88.8047H764.234C764.43 92.5645 765.821 95.4453 768.409 97.4473C770.997 99.4492 774.464 100.45 778.81 100.45C782.862 100.45 785.914 99.6934 787.965 98.1797C790.064 96.6172 791.114 94.5908 791.114 92.1006Z"/>
</mask>
<path d="M88.7949 25.1572H56.1289V114H34.1562V25.1572H1.92969V7.35938H88.7949V25.1572Z" stroke="#EDDDD4" stroke-width="2" mask="url(#path-1-outside-1)"/>
<path d="M137.354 92.1006C137.354 89.5127 136.061 87.4863 133.473 86.0215C130.934 84.5078 126.832 83.165 121.168 81.9932C102.32 78.0381 92.8965 70.0303 92.8965 57.9697C92.8965 50.9385 95.8018 45.0791 101.612 40.3916C107.472 35.6553 115.113 33.2871 124.537 33.2871C134.596 33.2871 142.628 35.6553 148.634 40.3916C154.688 45.1279 157.716 51.2803 157.716 58.8486H136.549C136.549 55.8213 135.572 53.3311 133.619 51.3779C131.666 49.376 128.614 48.375 124.464 48.375C120.899 48.375 118.141 49.1807 116.188 50.792C114.234 52.4033 113.258 54.4541 113.258 56.9443C113.258 59.2881 114.356 61.1924 116.554 62.6572C118.8 64.0732 122.56 65.3184 127.833 66.3926C133.106 67.418 137.55 68.5898 141.163 69.9082C152.345 74.0098 157.936 81.1143 157.936 91.2217C157.936 98.4482 154.835 104.308 148.634 108.8C142.433 113.243 134.425 115.465 124.61 115.465C117.97 115.465 112.062 114.293 106.886 111.949C101.759 109.557 97.7305 106.31 94.8008 102.208C91.8711 98.0576 90.4062 93.5898 90.4062 88.8047H110.475C110.67 92.5645 112.062 95.4453 114.649 97.4473C117.237 99.4492 120.704 100.45 125.05 100.45C129.103 100.45 132.154 99.6934 134.205 98.1797C136.305 96.6172 137.354 94.5908 137.354 92.1006Z" stroke="#EDDDD4" stroke-width="2" mask="url(#path-1-outside-1)"/>
<path d="M204.591 98.3994C208.497 98.3994 211.671 97.3252 214.112 95.1768C216.554 93.0283 217.823 90.1719 217.921 86.6074H237.77C237.721 91.9785 236.256 96.9102 233.375 101.402C230.494 105.846 226.539 109.312 221.51 111.803C216.529 114.244 211.012 115.465 204.957 115.465C193.629 115.465 184.693 111.876 178.15 104.698C171.607 97.4717 168.336 87.5107 168.336 74.8154V73.4238C168.336 61.2168 171.583 51.4756 178.077 44.2002C184.571 36.9248 193.482 33.2871 204.811 33.2871C214.723 33.2871 222.657 36.1191 228.614 41.7832C234.62 47.3984 237.672 54.8936 237.77 64.2686H217.921C217.823 60.167 216.554 56.8467 214.112 54.3076C211.671 51.7197 208.448 50.4258 204.444 50.4258C199.513 50.4258 195.777 52.2324 193.238 55.8457C190.748 59.4102 189.503 65.2207 189.503 73.2773V75.4746C189.503 83.6289 190.748 89.4883 193.238 93.0527C195.729 96.6172 199.513 98.3994 204.591 98.3994Z" stroke="#EDDDD4" stroke-width="2" mask="url(#path-1-outside-1)"/>
<path d="M270.509 43.3945C276.124 36.6562 283.18 33.2871 291.676 33.2871C308.863 33.2871 317.579 43.2725 317.823 63.2432V114H296.656V63.8291C296.656 59.2881 295.68 55.9434 293.727 53.7949C291.773 51.5977 288.526 50.499 283.985 50.499C277.784 50.499 273.292 52.8916 270.509 57.6768V114H249.342V1.5H270.509V43.3945Z" stroke="#EDDDD4" stroke-width="2" mask="url(#path-1-outside-1)"/>
<path d="M330.494 73.6436C330.494 65.7822 332.008 58.7754 335.035 52.623C338.062 46.4707 342.408 41.71 348.072 38.3408C353.785 34.9717 360.401 33.2871 367.921 33.2871C378.614 33.2871 387.33 36.5586 394.068 43.1016C400.855 49.6445 404.64 58.5312 405.421 69.7617L405.567 75.1816C405.567 87.3398 402.174 97.1055 395.387 104.479C388.6 111.803 379.493 115.465 368.067 115.465C356.642 115.465 347.511 111.803 340.675 104.479C333.888 97.1543 330.494 87.1934 330.494 74.5957V73.6436ZM351.661 75.1816C351.661 82.7012 353.077 88.4629 355.909 92.4668C358.741 96.4219 362.794 98.3994 368.067 98.3994C373.194 98.3994 377.198 96.4463 380.079 92.54C382.96 88.585 384.4 82.2861 384.4 73.6436C384.4 66.2705 382.96 60.5576 380.079 56.5049C377.198 52.4521 373.146 50.4258 367.921 50.4258C362.745 50.4258 358.741 52.4521 355.909 56.5049C353.077 60.5088 351.661 66.7344 351.661 75.1816Z" stroke="#EDDDD4" stroke-width="2" mask="url(#path-1-outside-1)"/>
<path d="M466.065 105.943C460.841 112.291 453.614 115.465 444.386 115.465C435.89 115.465 429.396 113.023 424.903 108.141C420.46 103.258 418.189 96.1045 418.092 86.6807V34.752H439.259V85.9482C439.259 94.2002 443.019 98.3262 450.538 98.3262C457.716 98.3262 462.647 95.8359 465.333 90.8555V34.752H486.573V114H466.651L466.065 105.943Z" stroke="#EDDDD4" stroke-width="2" mask="url(#path-1-outside-1)"/>
<path d="M522.022 34.752L522.682 43.9072C528.346 36.8271 535.938 33.2871 545.46 33.2871C553.858 33.2871 560.108 35.7529 564.21 40.6846C568.312 45.6162 570.411 52.9893 570.509 62.8037V114H549.342V63.3164C549.342 58.8242 548.365 55.5771 546.412 53.5752C544.459 51.5244 541.212 50.499 536.671 50.499C530.714 50.499 526.246 53.0381 523.268 58.1162V114H502.101V34.752H522.022Z" stroke="#EDDDD4" stroke-width="2" mask="url(#path-1-outside-1)"/>
<path d="M632.545 114C631.568 112.096 630.86 109.728 630.421 106.896C625.294 112.608 618.629 115.465 610.426 115.465C602.662 115.465 596.217 113.219 591.09 108.727C586.012 104.234 583.473 98.5703 583.473 91.7344C583.473 83.3359 586.573 76.8906 592.774 72.3984C599.024 67.9062 608.033 65.6357 619.801 65.5869H629.542V61.0459C629.542 57.3838 628.59 54.4541 626.686 52.2568C624.83 50.0596 621.876 48.9609 617.823 48.9609C614.259 48.9609 611.451 49.8154 609.4 51.5244C607.398 53.2334 606.397 55.5771 606.397 58.5557H585.23C585.23 53.9658 586.646 49.7178 589.479 45.8115C592.311 41.9053 596.314 38.8535 601.49 36.6562C606.666 34.4102 612.477 33.2871 618.922 33.2871C628.688 33.2871 636.427 35.7529 642.14 40.6846C647.901 45.5674 650.782 52.4521 650.782 61.3389V95.6895C650.831 103.209 651.881 108.897 653.932 112.755V114H632.545ZM615.04 99.2783C618.165 99.2783 621.046 98.5947 623.683 97.2275C626.319 95.8115 628.272 93.9316 629.542 91.5879V77.9648H621.632C611.036 77.9648 605.396 81.627 604.713 88.9512L604.64 90.1963C604.64 92.833 605.567 95.0059 607.423 96.7148C609.278 98.4238 611.817 99.2783 615.04 99.2783Z" stroke="#EDDDD4" stroke-width="2" mask="url(#path-1-outside-1)"/>
<path d="M703.517 115.465C691.896 115.465 682.423 111.9 675.099 104.771C667.823 97.6426 664.186 88.1455 664.186 76.2803V74.2295C664.186 66.2705 665.724 59.166 668.8 52.916C671.876 46.6172 676.222 41.7832 681.837 38.4141C687.501 34.9961 693.946 33.2871 701.173 33.2871C712.013 33.2871 720.533 36.7051 726.734 43.541C732.984 50.377 736.109 60.0693 736.109 72.6182V81.2607H685.646C686.329 86.4365 688.38 90.5869 691.798 93.7119C695.265 96.8369 699.635 98.3994 704.908 98.3994C713.062 98.3994 719.435 95.4453 724.024 89.5371L734.425 101.183C731.251 105.675 726.954 109.19 721.534 111.729C716.114 114.22 710.108 115.465 703.517 115.465ZM701.1 50.4258C696.9 50.4258 693.482 51.8418 690.846 54.6738C688.258 57.5059 686.598 61.5586 685.865 66.832H715.309V65.1475C715.211 60.46 713.941 56.8467 711.5 54.3076C709.059 51.7197 705.592 50.4258 701.1 50.4258Z" stroke="#EDDDD4" stroke-width="2" mask="url(#path-1-outside-1)"/>
<path d="M791.114 92.1006C791.114 89.5127 789.82 87.4863 787.232 86.0215C784.693 84.5078 780.592 83.165 774.928 81.9932C756.08 78.0381 746.656 70.0303 746.656 57.9697C746.656 50.9385 749.562 45.0791 755.372 40.3916C761.231 35.6553 768.873 33.2871 778.297 33.2871C788.355 33.2871 796.388 35.6553 802.394 40.3916C808.448 45.1279 811.476 51.2803 811.476 58.8486H790.309C790.309 55.8213 789.332 53.3311 787.379 51.3779C785.426 49.376 782.374 48.375 778.224 48.375C774.659 48.375 771.9 49.1807 769.947 50.792C767.994 52.4033 767.018 54.4541 767.018 56.9443C767.018 59.2881 768.116 61.1924 770.313 62.6572C772.56 64.0732 776.319 65.3184 781.593 66.3926C786.866 67.418 791.31 68.5898 794.923 69.9082C806.104 74.0098 811.695 81.1143 811.695 91.2217C811.695 98.4482 808.595 104.308 802.394 108.8C796.192 113.243 788.185 115.465 778.37 115.465C771.729 115.465 765.821 114.293 760.646 111.949C755.519 109.557 751.49 106.31 748.561 102.208C745.631 98.0576 744.166 93.5898 744.166 88.8047H764.234C764.43 92.5645 765.821 95.4453 768.409 97.4473C770.997 99.4492 774.464 100.45 778.81 100.45C782.862 100.45 785.914 99.6934 787.965 98.1797C790.064 96.6172 791.114 94.5908 791.114 92.1006Z" stroke="#EDDDD4" stroke-width="2" mask="url(#path-1-outside-1)"/>
</svg>
