<svg width="139" height="140" viewBox="0 0 139 140" fill="none" xmlns="http://www.w3.org/2000/svg">
<path fill-rule="evenodd" clip-rule="evenodd" d="M139 51.5C139 79.9427 115.943 103 87.5 103C76.9306 103 67.1048 99.816 58.9295 94.3548L14.1421 139.142L0 125L44.7594 80.2407C39.2284 72.0317 36 62.1429 36 51.5C36 23.0573 59.0574 0 87.5 0C115.943 0 139 23.0573 139 51.5ZM119 51.5C119 68.897 104.897 83 87.5 83C70.1031 83 56 68.897 56 51.5C56 34.103 70.1031 20 87.5 20C104.897 20 119 34.103 119 51.5Z" fill="#C4C4C4"/>
</svg>
