<svg width="146" height="110" viewBox="0 0 146 110" fill="none" xmlns="http://www.w3.org/2000/svg">
<path d="M93.8543 26.1565C92.2903 24.6145 89.7546 24.6145 88.1906 26.1565C86.6267 27.6985 86.6267 30.1986 88.1906 31.7406L111.265 54.4913L88.173 77.2594C86.609 78.8014 86.609 81.3015 88.173 82.8435C89.737 84.3855 92.2726 84.3855 93.8366 82.8435L116.929 60.0754L139.163 81.9977C140.727 83.5397 143.263 83.5397 144.827 81.9977C146.391 80.4556 146.391 77.9556 144.827 76.4136L122.593 54.4913L144.809 32.5865C146.373 31.0445 146.373 28.5444 144.809 27.0023C143.245 25.4603 140.71 25.4603 139.146 27.0023L116.929 48.9072L93.8543 26.1565Z" />
<path d="M38.3726 79H15C6.71573 79 0 72.2843 0 64V46C0 37.7157 6.71573 31 15 31H38.3726L74.5 0.440399L74.5 109.56L38.3726 79Z" />
</svg>
