<svg width="135" height="137" viewBox="0 0 135 137" fill="none" xmlns="http://www.w3.org/2000/svg">
<path d="M15.6835 2.68393C12.1049 -0.894644 6.30291 -0.894644 2.72433 2.68393C-0.854242 6.26251 -0.854242 12.0645 2.72433 15.6431L55.5223 68.4411L2.68393 121.279C-0.894644 124.858 -0.894645 130.66 2.68393 134.239C6.26251 137.817 12.0645 137.817 15.6431 134.239L68.4815 81.4002L119.357 132.276C122.935 135.854 128.737 135.854 132.316 132.276C135.895 128.697 135.895 122.895 132.316 119.316L81.4406 68.4411L132.276 17.6061C135.854 14.0275 135.854 8.22546 132.276 4.64688C128.697 1.06831 122.895 1.06831 119.317 4.64688L68.4815 55.4819L15.6835 2.68393Z" fill="#C4C4C4"/>
</svg>
