<svg width="150" height="150" viewBox="0 0 150 150" fill="none" xmlns="http://www.w3.org/2000/svg">
<path d="M7.40741 0C3.31641 0 0 3.21712 0 7.18563V47.6048C0 51.5733 3.31641 54.7904 7.40741 54.7904H9.25926V87.1258C9.25926 91.0943 12.5757 94.3114 16.6667 94.3114H18.5185C22.6095 94.3114 25.9259 91.0943 25.9259 87.1258V54.7904H32.4074V95.2096C32.4074 99.1781 35.7238 102.395 39.8148 102.395H48.1481V111.377H7.40741C3.31641 111.377 0 114.594 0 118.563V142.814C0 146.783 3.31641 150 7.40741 150H86.1111C90.2021 150 93.5185 146.783 93.5185 142.814V129.341H98.1481C102.239 129.341 105.556 126.124 105.556 122.156V102.395H112.963V124.85C112.963 128.819 116.279 132.036 120.37 132.036H125.926V143.713C125.926 146.689 128.413 149.102 131.481 149.102C134.55 149.102 137.037 146.689 137.037 143.713V132.036H142.593C146.684 132.036 150 128.819 150 124.85V90.7186C150 86.75 146.684 83.5329 142.593 83.5329H131.481V23.3533C131.481 22.733 131.4 22.1311 131.248 21.5569H138.889C142.98 21.5569 146.296 18.3398 146.296 14.3713V9.88024C146.296 5.91173 142.98 2.69461 138.889 2.69461H86.1111C82.0201 2.69461 78.7037 5.91173 78.7037 9.88024V14.3713C78.7037 14.9916 78.7847 15.5935 78.9371 16.1677H56.4815V7.18563C56.4815 3.21712 53.1651 0 49.0741 0H7.40741Z" fill="#C4C4C4"/>
</svg>
