<svg width="145" height="145" viewBox="0 0 145 145" fill="none" xmlns="http://www.w3.org/2000/svg">
<path d="M54 90H7.51666C3.36533 90 0 93.3653 0 97.5167C0 101.668 3.36532 105.033 7.51666 105.033H39.2399V137.62C39.2399 141.696 42.5441 145 46.62 145C50.6958 145 54 141.696 54 137.62V90Z" />
<path d="M90 91V137.483C90 141.635 93.3653 145 97.5167 145C101.668 145 105.033 141.635 105.033 137.483V105.76H137.62C141.696 105.76 145 102.456 145 98.38C145 94.3042 141.696 91 137.62 91H90Z" />
<path d="M91 55L137.483 55C141.635 55 145 51.6347 145 47.4833C145 43.332 141.635 39.9667 137.483 39.9667H105.76L105.76 7.38004C105.76 3.30416 102.456 5.4784e-06 98.38 5.83472e-06C94.3041 6.19105e-06 91 3.30416 91 7.38004V55Z" />
<path d="M56 54L56 7.51666C56 3.36533 52.6347 1.81461e-07 48.4833 0C44.332 -1.81461e-07 40.9667 3.36532 40.9667 7.51666V39.2399H8.38003C4.30415 39.2399 1 42.5441 0.999999 46.62C0.999999 50.6958 4.30415 54 8.38003 54L56 54Z" />
</svg>
