<svg width="142" height="142" viewBox="0 0 142 142" fill="none" xmlns="http://www.w3.org/2000/svg">
<path d="M71.542 100.397C87.4781 100.397 100.397 87.4781 100.397 71.542C100.397 55.6058 87.4781 42.687 71.542 42.687C55.6058 42.687 42.687 55.6058 42.687 71.542C42.687 87.4781 55.6058 100.397 71.542 100.397Z" fill="#C4C4C4"/>
<path fill-rule="evenodd" clip-rule="evenodd" d="M0 15C0 6.71573 6.71573 0 15 0H127C135.284 0 142 6.71573 142 15V127C142 135.284 135.284 142 127 142H15C6.71573 142 0 135.284 0 127V15ZM71.542 108.397C91.8964 108.397 108.397 91.8964 108.397 71.542C108.397 51.1875 91.8964 34.687 71.542 34.687C51.1875 34.687 34.687 51.1875 34.687 71.542C34.687 91.8964 51.1875 108.397 71.542 108.397ZM114.901 33.6031C119.69 33.6031 123.573 29.7206 123.573 24.9313C123.573 20.142 119.69 16.2595 114.901 16.2595C110.111 16.2595 106.229 20.142 106.229 24.9313C106.229 29.7206 110.111 33.6031 114.901 33.6031Z" fill="#C4C4C4"/>
</svg>
