<svg width="114" height="125" viewBox="0 0 114 125" fill="none" fill-opacity="1.0" xmlns="http://www.w3.org/2000/svg">
<path d="M15.5 31C24.0604 31 31 24.0604 31 15.5C31 6.93959 24.0604 0 15.5 0C6.93959 0 0 6.93959 0 15.5C0 24.0604 6.93959 31 15.5 31Z" fill="#C4C4C4"/>
<path d="M63.2031 41.6094C63.2031 40.5048 62.3077 39.6094 61.2031 39.6094H39.6562C38.5517 39.6094 37.6562 40.5048 37.6562 41.6094V122.141C37.6562 123.245 38.5517 124.141 39.6562 124.141H61.9844C63.0889 124.141 63.9844 123.245 63.9844 122.141V64.4531C66.4844 60.3906 70.3125 58.3594 75.4688 58.3594C80 58.3594 83.125 59.375 84.8438 61.4062C86.5625 63.3854 87.4219 66.5104 87.4219 70.7812V122.141C87.4219 123.245 88.3173 124.141 89.4219 124.141H111.828C112.933 124.141 113.828 123.245 113.828 122.141V69.6875C113.672 59.1146 111.406 51.1979 107.031 45.9375C102.708 40.6771 96.1458 38.0469 87.3438 38.0469C77.0833 38.0469 69.0365 41.875 63.2031 49.5312V41.6094Z" fill="#C4C4C4"/>
<path d="M26.9688 124.141C28.0733 124.141 28.9688 123.245 28.9688 122.141V41.6094C28.9688 40.5048 28.0733 39.6094 26.9688 39.6094H4.5625C3.45793 39.6094 2.5625 40.5048 2.5625 41.6094V122.141C2.5625 123.245 3.45793 124.141 4.5625 124.141H26.9688Z" fill="#C4C4C4"/>
</svg>
