<svg width="815" height="119" viewBox="0 0 815 119" fill="none" xmlns="http://www.w3.org/2000/svg">
<path d="M87.7949 24.1572H55.1289V113H33.1562V24.1572H0.929688V6.35938H87.7949V24.1572Z" fill="black"/>
<path d="M136.354 91.1006C136.354 88.5127 135.061 86.4863 132.473 85.0215C129.934 83.5078 125.832 82.165 120.168 80.9932C101.32 77.0381 91.8965 69.0303 91.8965 56.9697C91.8965 49.9385 94.8018 44.0791 100.612 39.3916C106.472 34.6553 114.113 32.2871 123.537 32.2871C133.596 32.2871 141.628 34.6553 147.634 39.3916C153.688 44.1279 156.716 50.2803 156.716 57.8486H135.549C135.549 54.8213 134.572 52.3311 132.619 50.3779C130.666 48.376 127.614 47.375 123.464 47.375C119.899 47.375 117.141 48.1807 115.188 49.792C113.234 51.4033 112.258 53.4541 112.258 55.9443C112.258 58.2881 113.356 60.1924 115.554 61.6572C117.8 63.0732 121.56 64.3184 126.833 65.3926C132.106 66.418 136.55 67.5898 140.163 68.9082C151.345 73.0098 156.936 80.1143 156.936 90.2217C156.936 97.4482 153.835 103.308 147.634 107.8C141.433 112.243 133.425 114.465 123.61 114.465C116.97 114.465 111.062 113.293 105.886 110.949C100.759 108.557 96.7305 105.31 93.8008 101.208C90.8711 97.0576 89.4062 92.5898 89.4062 87.8047H109.475C109.67 91.5645 111.062 94.4453 113.649 96.4473C116.237 98.4492 119.704 99.4502 124.05 99.4502C128.103 99.4502 131.154 98.6934 133.205 97.1797C135.305 95.6172 136.354 93.5908 136.354 91.1006Z" fill="black"/>
<path d="M203.591 97.3994C207.497 97.3994 210.671 96.3252 213.112 94.1768C215.554 92.0283 216.823 89.1719 216.921 85.6074H236.77C236.721 90.9785 235.256 95.9102 232.375 100.402C229.494 104.846 225.539 108.312 220.51 110.803C215.529 113.244 210.012 114.465 203.957 114.465C192.629 114.465 183.693 110.876 177.15 103.698C170.607 96.4717 167.336 86.5107 167.336 73.8154V72.4238C167.336 60.2168 170.583 50.4756 177.077 43.2002C183.571 35.9248 192.482 32.2871 203.811 32.2871C213.723 32.2871 221.657 35.1191 227.614 40.7832C233.62 46.3984 236.672 53.8936 236.77 63.2686H216.921C216.823 59.167 215.554 55.8467 213.112 53.3076C210.671 50.7197 207.448 49.4258 203.444 49.4258C198.513 49.4258 194.777 51.2324 192.238 54.8457C189.748 58.4102 188.503 64.2207 188.503 72.2773V74.4746C188.503 82.6289 189.748 88.4883 192.238 92.0527C194.729 95.6172 198.513 97.3994 203.591 97.3994Z" fill="black"/>
<path d="M269.509 42.3945C275.124 35.6562 282.18 32.2871 290.676 32.2871C307.863 32.2871 316.579 42.2725 316.823 62.2432V113H295.656V62.8291C295.656 58.2881 294.68 54.9434 292.727 52.7949C290.773 50.5977 287.526 49.499 282.985 49.499C276.784 49.499 272.292 51.8916 269.509 56.6768V113H248.342V0.5H269.509V42.3945Z" fill="black"/>
<path d="M329.494 72.6436C329.494 64.7822 331.008 57.7754 334.035 51.623C337.062 45.4707 341.408 40.71 347.072 37.3408C352.785 33.9717 359.401 32.2871 366.921 32.2871C377.614 32.2871 386.33 35.5586 393.068 42.1016C399.855 48.6445 403.64 57.5312 404.421 68.7617L404.567 74.1816C404.567 86.3398 401.174 96.1055 394.387 103.479C387.6 110.803 378.493 114.465 367.067 114.465C355.642 114.465 346.511 110.803 339.675 103.479C332.888 96.1543 329.494 86.1934 329.494 73.5957V72.6436ZM350.661 74.1816C350.661 81.7012 352.077 87.4629 354.909 91.4668C357.741 95.4219 361.794 97.3994 367.067 97.3994C372.194 97.3994 376.198 95.4463 379.079 91.54C381.96 87.585 383.4 81.2861 383.4 72.6436C383.4 65.2705 381.96 59.5576 379.079 55.5049C376.198 51.4521 372.146 49.4258 366.921 49.4258C361.745 49.4258 357.741 51.4521 354.909 55.5049C352.077 59.5088 350.661 65.7344 350.661 74.1816Z" fill="black"/>
<path d="M465.065 104.943C459.841 111.291 452.614 114.465 443.386 114.465C434.89 114.465 428.396 112.023 423.903 107.141C419.46 102.258 417.189 95.1045 417.092 85.6807V33.752H438.259V84.9482C438.259 93.2002 442.019 97.3262 449.538 97.3262C456.716 97.3262 461.647 94.8359 464.333 89.8555V33.752H485.573V113H465.651L465.065 104.943Z" fill="black"/>
<path d="M521.022 33.752L521.682 42.9072C527.346 35.8271 534.938 32.2871 544.46 32.2871C552.858 32.2871 559.108 34.7529 563.21 39.6846C567.312 44.6162 569.411 51.9893 569.509 61.8037V113H548.342V62.3164C548.342 57.8242 547.365 54.5771 545.412 52.5752C543.459 50.5244 540.212 49.499 535.671 49.499C529.714 49.499 525.246 52.0381 522.268 57.1162V113H501.101V33.752H521.022Z" fill="black"/>
<path d="M631.545 113C630.568 111.096 629.86 108.728 629.421 105.896C624.294 111.608 617.629 114.465 609.426 114.465C601.662 114.465 595.217 112.219 590.09 107.727C585.012 103.234 582.473 97.5703 582.473 90.7344C582.473 82.3359 585.573 75.8906 591.774 71.3984C598.024 66.9062 607.033 64.6357 618.801 64.5869H628.542V60.0459C628.542 56.3838 627.59 53.4541 625.686 51.2568C623.83 49.0596 620.876 47.9609 616.823 47.9609C613.259 47.9609 610.451 48.8154 608.4 50.5244C606.398 52.2334 605.397 54.5771 605.397 57.5557H584.23C584.23 52.9658 585.646 48.7178 588.479 44.8115C591.311 40.9053 595.314 37.8535 600.49 35.6562C605.666 33.4102 611.477 32.2871 617.922 32.2871C627.688 32.2871 635.427 34.7529 641.14 39.6846C646.901 44.5674 649.782 51.4521 649.782 60.3389V94.6895C649.831 102.209 650.881 107.897 652.932 111.755V113H631.545ZM614.04 98.2783C617.165 98.2783 620.046 97.5947 622.683 96.2275C625.319 94.8115 627.272 92.9316 628.542 90.5879V76.9648H620.632C610.036 76.9648 604.396 80.627 603.713 87.9512L603.64 89.1963C603.64 91.833 604.567 94.0059 606.423 95.7148C608.278 97.4238 610.817 98.2783 614.04 98.2783Z" fill="black"/>
<path d="M702.517 114.465C690.896 114.465 681.423 110.9 674.099 103.771C666.823 96.6426 663.186 87.1455 663.186 75.2803V73.2295C663.186 65.2705 664.724 58.166 667.8 51.916C670.876 45.6172 675.222 40.7832 680.837 37.4141C686.501 33.9961 692.946 32.2871 700.173 32.2871C711.013 32.2871 719.533 35.7051 725.734 42.541C731.984 49.377 735.109 59.0693 735.109 71.6182V80.2607H684.646C685.329 85.4365 687.38 89.5869 690.798 92.7119C694.265 95.8369 698.635 97.3994 703.908 97.3994C712.062 97.3994 718.435 94.4453 723.024 88.5371L733.425 100.183C730.251 104.675 725.954 108.19 720.534 110.729C715.114 113.22 709.108 114.465 702.517 114.465ZM700.1 49.4258C695.9 49.4258 692.482 50.8418 689.846 53.6738C687.258 56.5059 685.598 60.5586 684.865 65.832H714.309V64.1475C714.211 59.46 712.941 55.8467 710.5 53.3076C708.059 50.7197 704.592 49.4258 700.1 49.4258Z" fill="black"/>
<path d="M790.114 91.1006C790.114 88.5127 788.82 86.4863 786.232 85.0215C783.693 83.5078 779.592 82.165 773.928 80.9932C755.08 77.0381 745.656 69.0303 745.656 56.9697C745.656 49.9385 748.562 44.0791 754.372 39.3916C760.231 34.6553 767.873 32.2871 777.297 32.2871C787.355 32.2871 795.388 34.6553 801.394 39.3916C807.448 44.1279 810.476 50.2803 810.476 57.8486H789.309C789.309 54.8213 788.332 52.3311 786.379 50.3779C784.426 48.376 781.374 47.375 777.224 47.375C773.659 47.375 770.9 48.1807 768.947 49.792C766.994 51.4033 766.018 53.4541 766.018 55.9443C766.018 58.2881 767.116 60.1924 769.313 61.6572C771.56 63.0732 775.319 64.3184 780.593 65.3926C785.866 66.418 790.31 67.5898 793.923 68.9082C805.104 73.0098 810.695 80.1143 810.695 90.2217C810.695 97.4482 807.595 103.308 801.394 107.8C795.192 112.243 787.185 114.465 777.37 114.465C770.729 114.465 764.821 113.293 759.646 110.949C754.519 108.557 750.49 105.31 747.561 101.208C744.631 97.0576 743.166 92.5898 743.166 87.8047H763.234C763.43 91.5645 764.821 94.4453 767.409 96.4473C769.997 98.4492 773.464 99.4502 777.81 99.4502C781.862 99.4502 784.914 98.6934 786.965 97.1797C789.064 95.6172 790.114 93.5908 790.114 91.1006Z" fill="black"/>
</svg>
