<svg width="94" height="150" viewBox="0 0 94 150" fill="current" xmlns="http://www.w3.org/2000/svg">
<path d="M31.2946 35.3519C29.2816 35.3519 27.6497 37.0006 27.6497 39.0344C27.6497 41.0682 29.2816 42.7169 31.2946 42.7169H54.6221C56.6352 42.7169 58.2671 41.0682 58.2671 39.0344C58.2671 37.0006 56.6352 35.3519 54.6221 35.3519H31.2946Z" fill="current"/>
<path d="M63.127 121.768C63.6638 121.768 64.0989 122.207 64.0989 122.75V127.491L67.987 127.429C68.5237 127.421 68.9657 127.854 68.974 128.396C68.9824 128.938 68.5541 129.385 68.0174 129.393L64.0989 129.455V132.079C64.0989 132.621 63.6638 133.061 63.127 133.061C62.5902 133.061 62.155 132.621 62.155 132.079V129.486L54.4094 129.608C53.8727 129.616 53.4307 129.184 53.4223 128.641C53.414 128.099 53.8423 127.653 54.379 127.644L62.155 127.521V122.75C62.155 122.207 62.5902 121.768 63.127 121.768Z" fill="current"/>
<path fill-rule="evenodd" clip-rule="evenodd" d="M54.0146 117.103C54.0146 114.391 56.1905 112.193 58.8745 112.193H68.7159C71.3999 112.193 73.5758 114.391 73.5758 117.103V126.923C73.5758 133.702 68.1361 139.198 61.426 139.198H26.6777C23.9936 139.198 21.8178 137 21.8178 134.288V126.309C21.8178 123.598 23.9936 121.399 26.6777 121.399H54.0146V117.103ZM55.9586 123.363H26.6777C25.0673 123.363 23.7617 124.682 23.7617 126.309V134.288C23.7617 135.915 25.0673 137.234 26.6777 137.234H61.426C67.0625 137.234 71.6318 132.618 71.6318 126.923V117.103C71.6318 115.476 70.3263 114.157 68.7159 114.157H58.8745C57.2641 114.157 55.9586 115.476 55.9586 117.103V123.363Z" fill="current"/>
<path fill-rule="evenodd" clip-rule="evenodd" d="M58.7501 49.3453H47.8183V65.7938C47.8183 70.5393 44.0105 74.3863 39.3134 74.3863C34.6163 74.3863 30.8086 70.5393 30.8086 65.7938V52.2913C30.8086 49.5796 32.9845 47.3813 35.6685 47.3813H58.7501C63.0247 47.3813 65.8469 51.8738 64.0272 55.7816L43.4527 99.9645C42.2395 102.57 44.121 105.565 46.9707 105.565H73.5758C74.1126 105.565 74.5477 106.004 74.5477 106.547C74.5477 107.089 74.1126 107.529 73.5758 107.529H46.9707C42.6961 107.529 39.874 103.036 41.6937 99.1284L62.2681 54.9455C63.4813 52.3403 61.5998 49.3453 58.7501 49.3453ZM41.7434 52.7823C42.2802 52.7823 42.7154 53.222 42.7154 53.7643V65.0573C42.7154 65.5996 42.2802 66.0393 41.7434 66.0393C41.2066 66.0393 40.7714 65.5996 40.7714 65.0573V53.7643C40.7714 53.222 41.2066 52.7823 41.7434 52.7823Z" fill="current"/>
<path fill-rule="evenodd" clip-rule="evenodd" d="M74.0618 84.4517C74.0618 88.5193 70.798 91.8167 66.7719 91.8167C62.7458 91.8167 59.482 88.5193 59.482 84.4517C59.482 80.3842 62.7458 77.0867 66.7719 77.0867C70.798 77.0867 74.0618 80.3842 74.0618 84.4517ZM69.6878 82.2422C69.6878 81.6999 69.2527 81.2602 68.7159 81.2602C68.179 81.2602 67.7439 81.6999 67.7439 82.2422V86.6612C67.7439 87.2036 68.179 87.6432 68.7159 87.6432C69.2527 87.6432 69.6878 87.2036 69.6878 86.6612V82.2422Z" fill="current"/>
<path fill-rule="evenodd" clip-rule="evenodd" d="M27.6496 0C20.9395 0 15.4999 5.49569 15.4999 12.275L15.4999 68.0033H7.72405C5.03999 68.0033 2.86414 70.2015 2.86414 72.9133V79.5417C2.86414 81.1055 3.15356 82.6009 3.68124 83.9764L1.06757 86.617C-0.355858 88.0551 -0.355858 90.3867 1.06757 91.8248C2.49101 93.2629 4.79885 93.2629 6.22228 91.8248L8.27135 89.7546C10.2005 91.0572 12.5194 91.8167 15.0139 91.8167H15.4999V135.27C15.4999 143.405 22.0274 150 30.0796 150H65.5569C73.6091 150 80.1366 143.405 80.1366 135.27V42.7169H90.0994C92.1125 42.7169 93.7444 41.0682 93.7444 39.0344C93.7444 37.0006 92.1125 35.3519 90.0994 35.3519H80.1366V30.4419H89.1274C91.8115 30.4419 93.9873 28.2436 93.9873 25.5319V12.275C93.9873 5.49569 88.5477 0 81.8376 0H27.6496ZM78.1927 35.3519V30.4419H22.7897V59.9018C22.7897 61.9356 21.1579 63.5843 19.1448 63.5843C18.5305 63.5843 17.9516 63.4307 17.4439 63.1596L17.4439 135.27C17.4439 142.32 23.1011 148.036 30.0796 148.036H65.5569C72.5354 148.036 78.1927 142.32 78.1927 135.27V42.7169H66.7719C64.7589 42.7169 63.127 41.0682 63.127 39.0344C63.127 37.0006 64.7589 35.3519 66.7719 35.3519H78.1927ZM15.4999 69.9673H7.72405C6.11361 69.9673 4.8081 71.2862 4.8081 72.9133V79.5417C4.8081 80.5438 4.94958 81.5124 5.21345 82.4284L6.22228 81.4091C7.64571 79.971 9.95356 79.971 11.377 81.4091C12.8004 82.8472 12.8004 85.1789 11.377 86.617L9.67835 88.3331C11.2308 89.2969 13.0581 89.8527 15.0139 89.8527H15.4999V69.9673Z" fill="current"/>
</svg>
